<?xml version="1.0" encoding="UTF-8" standalone="no"?>
<!-- Generator: Adobe Illustrator 22.1.0, SVG Export Plug-In . SVG Version: 6.00 Build 0)  -->

<svg
   version="1.1"
   id="Layer_1"
   x="0px"
   y="0px"
   viewBox="0 0 100 100"
   style="enable-background:new 0 0 100 100;"
   xml:space="preserve"
   sodipodi:docname="favicon.svg"
   inkscape:version="1.1.2 (0a00cf5339, 2022-02-04)"
   inkscape:export-filename="/home/kain/384.png"
   inkscape:export-xdpi="368.64001"
   inkscape:export-ydpi="368.64001"
   xmlns:inkscape="http://www.inkscape.org/namespaces/inkscape"
   xmlns:sodipodi="http://sodipodi.sourceforge.net/DTD/sodipodi-0.dtd"
   xmlns="http://www.w3.org/2000/svg"
   xmlns:svg="http://www.w3.org/2000/svg"><defs
   id="defs321" /><sodipodi:namedview
   id="namedview319"
   pagecolor="#ffffff"
   bordercolor="#666666"
   borderopacity="1.0"
   inkscape:pageshadow="2"
   inkscape:pageopacity="0.0"
   inkscape:pagecheckerboard="0"
   showgrid="false"
   inkscape:zoom="3.14"
   inkscape:cx="52.070064"
   inkscape:cy="30.254777"
   inkscape:window-width="1600"
   inkscape:window-height="852"
   inkscape:window-x="0"
   inkscape:window-y="20"
   inkscape:window-maximized="1"
   inkscape:current-layer="Layer_1" />
<g
   id="line1">
</g>
<g
   id="line2">
</g>
<g
   id="g8"
   style="fill:#ff9955">
	<g
   id="g6"
   style="fill:#ff9955">
		<path
   style="fill:#ff9955"
   d="M87.215,56.71C88.35,54.555,89,52.105,89,49.5c0-6.621-4.159-12.257-10.001-14.478    C78.999,35.015,79,35.008,79,35c0-11.598-9.402-21-21-21c-9.784,0-17.981,6.701-20.313,15.757C36.211,29.272,34.638,29,33,29    c-7.692,0-14.023,5.793-14.89,13.252C12.906,43.353,9,47.969,9,53.5C9,59.851,14.149,65,20.5,65c0.177,0,0.352-0.012,0.526-0.022    C21.022,65.153,21,65.324,21,65.5C21,76.822,30.178,86,41.5,86c6.437,0,12.175-2.972,15.934-7.614C59.612,80.611,62.64,82,66,82    c4.65,0,8.674-2.65,10.666-6.518C77.718,75.817,78.837,76,80,76c6.075,0,11-4.925,11-11C91,61.689,89.53,58.727,87.215,56.71z"
   id="path4" />
	</g>
</g>

<g
   id="g84">
	<g
   id="g34">
		<g
   id="g32">
			<path
   style="fill:#FFFFFF;"
   d="M71.405,22H61.5c-0.276,0-0.5-0.224-0.5-0.5s0.224-0.5,0.5-0.5h9.905c0.276,0,0.5,0.224,0.5,0.5     S71.682,22,71.405,22z"
   id="path30" />
		</g>
	</g>
	<g
   id="g40">
		<g
   id="g38">
			<path
   style="fill:#FFFFFF;"
   d="M74.5,22h-1c-0.276,0-0.5-0.224-0.5-0.5s0.224-0.5,0.5-0.5h1c0.276,0,0.5,0.224,0.5,0.5     S74.777,22,74.5,22z"
   id="path36" />
		</g>
	</g>
	<g
   id="g46">
		<g
   id="g44">
			<path
   style="fill:#FFFFFF;"
   d="M79.491,24H70.5c-0.276,0-0.5-0.224-0.5-0.5s0.224-0.5,0.5-0.5h8.991c0.276,0,0.5,0.224,0.5,0.5     S79.767,24,79.491,24z"
   id="path42" />
		</g>
	</g>
	<g
   id="g52">
		<g
   id="g50">
			<path
   style="fill:#FFFFFF;"
   d="M68.5,24h-1c-0.276,0-0.5-0.224-0.5-0.5s0.224-0.5,0.5-0.5h1c0.276,0,0.5,0.224,0.5,0.5     S68.777,24,68.5,24z"
   id="path48" />
		</g>
	</g>
	<g
   id="g58">
		<g
   id="g56">
			<path
   style="fill:#FFFFFF;"
   d="M65.5,24h-2c-0.276,0-0.5-0.224-0.5-0.5s0.224-0.5,0.5-0.5h2c0.276,0,0.5,0.224,0.5,0.5     S65.777,24,65.5,24z"
   id="path54" />
		</g>
	</g>
	<g
   id="g64">
		<g
   id="g62">
			<path
   style="fill:#FFFFFF;"
   d="M71.5,26h-2c-0.276,0-0.5-0.224-0.5-0.5s0.224-0.5,0.5-0.5h2c0.276,0,0.5,0.224,0.5,0.5     S71.776,26,71.5,26z"
   id="path60" />
		</g>
	</g>
	<g
   id="g70">
		<g
   id="g68">
			<path
   style="fill:#FFFFFF;"
   d="M74.5,17c-0.177,0-0.823,0-1,0c-0.276,0-0.5,0.224-0.5,0.5c0,0.276,0.224,0.5,0.5,0.5     c0.177,0,0.823,0,1,0c0.276,0,0.5-0.224,0.5-0.5C75,17.224,74.776,17,74.5,17z"
   id="path66" />
		</g>
	</g>
	<g
   id="g76">
		<g
   id="g74">
			<path
   style="fill:#FFFFFF;"
   d="M74.5,19c-0.177,0-4.823,0-5,0c-0.276,0-0.5,0.224-0.5,0.5c0,0.276,0.224,0.5,0.5,0.5     c0.177,0,4.823,0,5,0c0.276,0,0.5-0.224,0.5-0.5C75,19.224,74.776,19,74.5,19z"
   id="path72" />
		</g>
	</g>
	<g
   id="g82">
		<g
   id="g80">
			<path
   style="fill:#FFFFFF;"
   d="M79.5,21c-0.177,0-2.823,0-3,0c-0.276,0-0.5,0.224-0.5,0.5c0,0.276,0.224,0.5,0.5,0.5     c0.177,0,2.823,0,3,0c0.276,0,0.5-0.224,0.5-0.5C80,21.224,79.776,21,79.5,21z"
   id="path78" />
		</g>
	</g>
</g>
<g
   id="g128">
	<g
   id="g90">
		<g
   id="g88">
			<path
   style="fill:#FFFFFF;"
   d="M16.5,59h-10C6.224,59,6,58.776,6,58.5S6.224,58,6.5,58h10c0.276,0,0.5,0.224,0.5,0.5     S16.776,59,16.5,59z"
   id="path86" />
		</g>
	</g>
	<g
   id="g96">
		<g
   id="g94">
			<path
   style="fill:#FFFFFF;"
   d="M20.5,59h-2c-0.276,0-0.5-0.224-0.5-0.5s0.224-0.5,0.5-0.5h2c0.276,0,0.5,0.224,0.5,0.5     S20.776,59,20.5,59z"
   id="path92" />
		</g>
	</g>
	<g
   id="g102">
		<g
   id="g100">
			<path
   style="fill:#FFFFFF;"
   d="M25.5,61h-10c-0.276,0-0.5-0.224-0.5-0.5s0.224-0.5,0.5-0.5h10c0.276,0,0.5,0.224,0.5,0.5     S25.777,61,25.5,61z"
   id="path98" />
		</g>
	</g>
	<g
   id="g108">
		<g
   id="g106">
			<path
   style="fill:#FFFFFF;"
   d="M13.5,61h-1c-0.276,0-0.5-0.224-0.5-0.5s0.224-0.5,0.5-0.5h1c0.276,0,0.5,0.224,0.5,0.5     S13.776,61,13.5,61z"
   id="path104" />
		</g>
	</g>
	<g
   id="g114">
		<g
   id="g112">
			<path
   style="fill:#FFFFFF;"
   d="M10.47,61H8.5C8.224,61,8,60.776,8,60.5S8.224,60,8.5,60h1.97c0.276,0,0.5,0.224,0.5,0.5     S10.746,61,10.47,61z"
   id="path110" />
		</g>
	</g>
	<g
   id="g120">
		<g
   id="g118">
			<path
   style="fill:#FFFFFF;"
   d="M19.5,57h-5c-0.276,0-0.5-0.224-0.5-0.5s0.224-0.5,0.5-0.5h5c0.276,0,0.5,0.224,0.5,0.5     S19.777,57,19.5,57z"
   id="path116" />
		</g>
	</g>
	<g
   id="g126">
		<g
   id="g124">
			<path
   style="fill:#FFFFFF;"
   d="M16.5,63h-2c-0.276,0-0.5-0.224-0.5-0.5s0.224-0.5,0.5-0.5h2c0.276,0,0.5,0.224,0.5,0.5     S16.776,63,16.5,63z"
   id="path122" />
		</g>
	</g>
</g>
<g
   id="g134">
	<g
   id="g132">
		<path
   style="fill:#FFFFFF;"
   d="M68.625,75h-31.25C33.854,75,31,72.146,31,68.625v-31.25C31,33.854,33.854,31,37.375,31h31.25    C72.146,31,75,33.854,75,37.375v31.25C75,72.146,72.146,75,68.625,75z"
   id="path130" />
	</g>
</g>
<g
   id="g140"
   style="fill:#c87137">
	<g
   id="g138"
   style="fill:#c87137">
		<path
   style="fill:#c87137"
   d="M75,43v-5.279C75,34.009,71.882,31,68.035,31H37.965C34.118,31,31,34.009,31,37.721V43H75z"
   id="path136" />
	</g>
</g>
<g
   id="g146">
	<g
   id="g144">
		<path
   style="fill:#472B29;"
   d="M36.5,43H31c-0.276,0-0.5-0.224-0.5-0.5S30.724,42,31,42h5.5c0.276,0,0.5,0.224,0.5,0.5    S36.776,43,36.5,43z"
   id="path142" />
	</g>
</g>
<g
   id="g152">
	<g
   id="g150">
		<path
   style="fill:#472B29;"
   d="M75,43H39.25c-0.276,0-0.5-0.224-0.5-0.5s0.224-0.5,0.5-0.5H75c0.276,0,0.5,0.224,0.5,0.5    S75.276,43,75,43z"
   id="path148" />
	</g>
</g>
<g
   id="g158">
	<g
   id="g156">
		<path
   style="fill:#472B29;"
   d="M62.5,54.75H31c-0.138,0-0.25-0.112-0.25-0.25s0.112-0.25,0.25-0.25h31.5    c0.138,0,0.25,0.112,0.25,0.25S62.638,54.75,62.5,54.75z"
   id="path154" />
	</g>
</g>
<g
   id="g164">
	<g
   id="g162">
		<path
   style="fill:#472B29;"
   d="M75,54.75H65c-0.138,0-0.25-0.112-0.25-0.25s0.112-0.25,0.25-0.25h10c0.138,0,0.25,0.112,0.25,0.25    S75.138,54.75,75,54.75z"
   id="path160" />
	</g>
</g>
<g
   id="g170">
	<g
   id="g168">
		<path
   style="fill:#472B29;"
   d="M75,64.75H51c-0.138,0-0.25-0.112-0.25-0.25s0.112-0.25,0.25-0.25h24c0.138,0,0.25,0.112,0.25,0.25    S75.138,64.75,75,64.75z"
   id="path166" />
	</g>
</g>
<g
   id="g176">
	<g
   id="g174">
		<path
   style="fill:#472B29;"
   d="M48,64.75H31c-0.138,0-0.25-0.112-0.25-0.25s0.112-0.25,0.25-0.25h17c0.138,0,0.25,0.112,0.25,0.25    S48.138,64.75,48,64.75z"
   id="path172" />
	</g>
</g>
<g
   id="g182">
	<g
   id="g180">
		<circle
   style="fill:#472B29;"
   cx="36.5"
   cy="45.5"
   r="0.5"
   id="circle178" />
	</g>
</g>
<g
   id="g188">
	<g
   id="g186">
		<circle
   style="fill:#472B29;"
   cx="39.5"
   cy="45.5"
   r="0.5"
   id="circle184" />
	</g>
</g>
<g
   id="g194">
	<g
   id="g192">
		<circle
   style="fill:#472B29;"
   cx="42.5"
   cy="45.5"
   r="0.5"
   id="circle190" />
	</g>
</g>
<g
   id="g200">
	<g
   id="g198">
		<circle
   style="fill:#472B29;"
   cx="45.5"
   cy="45.5"
   r="0.5"
   id="circle196" />
	</g>
</g>
<g
   id="g206">
	<g
   id="g204">
		<circle
   style="fill:#472B29;"
   cx="48.5"
   cy="45.5"
   r="0.5"
   id="circle202" />
	</g>
</g>
<g
   id="g212">
	<g
   id="g210">
		<circle
   style="fill:#472B29;"
   cx="51.5"
   cy="45.5"
   r="0.5"
   id="circle208" />
	</g>
</g>
<g
   id="g218">
	<g
   id="g216">
		<circle
   style="fill:#472B29;"
   cx="54.5"
   cy="45.5"
   r="0.5"
   id="circle214" />
	</g>
</g>
<g
   id="g224">
	<g
   id="g222">
		<circle
   style="fill:#472B29;"
   cx="57.5"
   cy="45.5"
   r="0.5"
   id="circle220" />
	</g>
</g>
<g
   id="g230">
	<g
   id="g228">
		<circle
   style="fill:#472B29;"
   cx="60.5"
   cy="45.5"
   r="0.5"
   id="circle226" />
	</g>
</g>
<g
   id="g236">
	<g
   id="g234">
		<circle
   style="fill:#472B29;"
   cx="63.5"
   cy="45.5"
   r="0.5"
   id="circle232" />
	</g>
</g>
<g
   id="g242">
	<g
   id="g240">
		<circle
   style="fill:#472B29;"
   cx="66.5"
   cy="45.5"
   r="0.5"
   id="circle238" />
	</g>
</g>
<g
   id="g248">
	<g
   id="g246">
		<circle
   style="fill:#472B29;"
   cx="69.5"
   cy="45.5"
   r="0.5"
   id="circle244" />
	</g>
</g>
<g
   id="g254"
   style="fill:#000000">
	<g
   id="g252"
   style="fill:#000000">
		<path
   style="fill:#000000"
   d="M68.625,75.7h-31.25c-3.901,0-7.075-3.174-7.075-7.075v-31.25c0-3.901,3.174-7.075,7.075-7.075    h31.25c3.901,0,7.075,3.174,7.075,7.075v31.25C75.7,72.526,72.526,75.7,68.625,75.7z M37.375,31.7    c-3.129,0-5.675,2.546-5.675,5.675v31.25c0,3.129,2.545,5.675,5.675,5.675h31.25c3.129,0,5.675-2.546,5.675-5.675v-31.25    c0-3.129-2.545-5.675-5.675-5.675H37.375z"
   id="path250" />
	</g>
</g>
<g
   id="g260">
	<g
   id="g258">
		<path
   style="fill:#472B29;"
   d="M61.5,34.5H55c-0.276,0-0.5-0.224-0.5-0.5s0.224-0.5,0.5-0.5h6.5c0.276,0,0.5,0.224,0.5,0.5    S61.776,34.5,61.5,34.5z"
   id="path256" />
	</g>
</g>
<g
   id="g266">
	<g
   id="g264">
		<path
   style="fill:#472B29;"
   d="M34,40c-0.276,0-0.5-0.224-0.5-0.5v-2.008c0-2.201,1.942-3.992,4.33-3.992h13.735    c0.276,0,0.5,0.224,0.5,0.5s-0.224,0.5-0.5,0.5H37.83c-1.836,0-3.33,1.342-3.33,2.992V39.5C34.5,39.776,34.276,40,34,40z"
   id="path262" />
	</g>
</g>
<g
   id="g272">
	<g
   id="g270">
		<path
   style="fill:#472B29;"
   d="M72,40c-0.276,0-0.5-0.224-0.5-0.5v-2.008c0-1.65-1.171-2.992-2.611-2.992h-3.312    c-0.276,0-0.5-0.224-0.5-0.5s0.224-0.5,0.5-0.5h3.312c1.991,0,3.611,1.791,3.611,3.992V39.5C72.5,39.776,72.276,40,72,40z"
   id="path268" />
	</g>
</g>
<g
   id="g278">
	<g
   id="g276">
		<path
   style="fill:#472B29;"
   d="M47.625,72.5h-9.849c-2.358,0-4.276-1.791-4.276-3.992V45.5c0-0.276,0.224-0.5,0.5-0.5    s0.5,0.224,0.5,0.5v23.008c0,1.65,1.47,2.992,3.276,2.992h9.849c0.276,0,0.5,0.224,0.5,0.5S47.901,72.5,47.625,72.5z"
   id="path274" />
	</g>
</g>
<g
   id="g284">
	<g
   id="g282">
		<path
   style="fill:#472B29;"
   d="M68.224,72.5H50.625c-0.276,0-0.5-0.224-0.5-0.5s0.224-0.5,0.5-0.5h17.599    c1.806,0,3.276-1.342,3.276-2.992V45.5c0-0.276,0.224-0.5,0.5-0.5s0.5,0.224,0.5,0.5v23.008C72.5,70.709,70.582,72.5,68.224,72.5z    "
   id="path280" />
	</g>
</g>

</svg>
